<svg width="512" height="512" viewBox="0 0 512 512" xmlns="http://www.w3.org/2000/svg">
  <defs>
    <linearGradient id="bg" x1="0%" y1="0%" x2="100%" y2="100%">
      <stop offset="0%" style="stop-color:#1a1a2e;stop-opacity:1" />
      <stop offset="100%" style="stop-color:#16213e;stop-opacity:1" />
    </linearGradient>
  </defs>
  
  <!-- 背景 -->
  <rect width="512" height="512" fill="url(#bg)" rx="80"/>
  
  <!-- 撲克牌符號 -->
  <g transform="translate(256, 256)">
    <!-- 黑桃 -->
    <g transform="translate(-80, -60)" fill="#fff">
      <path d="M0,0 L-20,-30 L-10,-50 L10,-50 L20,-30 Z M0,-20 L-15,-35 L-5,-45 L5,-45 L15,-35 Z"/>
    </g>
    
    <!-- 紅心 -->
    <g transform="translate(80, -60)" fill="#ff4444">
      <path d="M0,-30 C-15,-45 -30,-30 -20,-15 C-10,-5 0,-5 0,5 C0,-5 10,-5 20,-15 C30,-30 15,-45 0,-30 Z"/>
    </g>
    
    <!-- 方塊 -->
    <g transform="translate(-80, 60)" fill="#ff4444">
      <path d="M0,-30 L-20,-10 L-20,10 L0,30 L20,10 L20,-10 Z"/>
    </g>
    
    <!-- 梅花 -->
    <g transform="translate(80, 60)" fill="#fff">
      <circle cx="0" cy="-20" r="8"/>
      <circle cx="-15" cy="-5" r="8"/>
      <circle cx="15" cy="-5" r="8"/>
      <path d="M0,5 L-10,25 L10,25 Z"/>
    </g>
    
    <!-- 中央文字 -->
    <text x="0" y="10" text-anchor="middle" fill="#fff" font-family="Arial, sans-serif" font-size="24" font-weight="bold">BRIDGE</text>
  </g>
</svg>
